<svg width="172" height="35" viewBox="0 0 506 103" fill="none" xmlns="http://www.w3.org/2000/svg" alt="XRPL Multisig wallet"><mask id="mask0_1226_3356" maskUnits="userSpaceOnUse" x="0" y="0" width="506" height="103" style="mask-type: luminance;"><path d="M506 0H0V103H506V0Z" fill="white"></path></mask><g mask="url(#mask0_1226_3356)"><path d="M194.431 17.3872L202.689 0.523438H216.601L202.482 25.6752L216.979 51.2502H202.933L194.438 34.0732L185.943 51.2502H171.928L186.395 25.6752L172.313 0.523438H186.187L194.446 17.3872H194.431Z" fill="white"></path><path d="M238.639 33.3082H232.046V51.2502H219.873V0.523438H239.749C245.735 0.523438 250.42 1.85384 253.794 4.52224C257.168 7.19024 258.855 10.9582 258.855 15.8342C258.855 19.3642 258.145 22.2852 256.724 24.6042C255.303 26.9232 253.076 28.8032 250.05 30.2382L260.594 50.7222V51.2422H247.556L238.639 33.3002V33.3082ZM232.046 23.9062H239.749C242.058 23.9062 243.804 23.2962 244.966 22.0702C246.135 20.8512 246.72 19.1412 246.72 16.9562C246.72 14.7712 246.127 13.0542 244.951 11.8062C243.774 10.5572 242.036 9.94024 239.749 9.94024H232.046V23.9132V23.9062Z" fill="white"></path><path d="M276.96 34.0432V51.2572H264.789V0.523438H284.939C288.802 0.523438 292.219 1.23693 295.187 2.66393C298.155 4.09123 300.455 6.12724 302.092 8.75824C303.727 11.3892 304.535 14.3852 304.535 17.7292C304.535 22.6792 302.771 26.6332 299.242 29.5912C295.713 32.5502 290.88 34.0362 284.725 34.0362H276.955L276.96 34.0432ZM276.96 24.5972H284.939C287.299 24.5972 289.098 24.0022 290.333 22.8212C291.57 21.6392 292.192 19.9662 292.192 17.8042C292.192 15.4332 291.554 13.5452 290.281 12.1252C289.008 10.7062 287.277 9.98523 285.079 9.96223H276.96V24.5972Z" fill="white"></path><path d="M322.493 41.8482H343.688V51.2572H310.32V0.523438H322.493V41.8402V41.8482Z" fill="white"></path><path d="M394.992 29.7252H375.84V41.8482H398.453V51.2572H363.658V0.523438H398.521V9.96223H375.831V20.6582H394.984V29.7182L394.992 29.7252Z" fill="white"></path><path d="M424.442 37.4552L434.499 0.523438H448.101L431.104 51.2502H417.783L400.926 0.523438H414.416L424.442 37.4552Z" fill="white"></path><path d="M467.406 0.523438L478.679 35.8122L489.918 0.523438H505.946V51.2502H493.737V39.4022L494.912 15.1582L482.703 51.2502H474.651L462.404 15.1202L463.581 39.4022V51.2502H451.408V0.523438H467.401H467.406Z" fill="white"></path><path d="M80.147 55.5902C89.523 55.5902 98.617 58.9202 105.543 65.4462L144.356 101.961H125.745L96.316 74.2832C91.987 70.2252 86.215 68.0542 80.154 68.0542C74.094 68.0542 68.322 70.2252 63.993 74.2832L34.5635 101.961H15.9527L54.765 65.4462C61.692 58.9272 70.779 55.5902 80.162 55.5902H80.147ZM80.147 46.9012C70.771 46.9012 61.677 43.5722 54.751 37.0462L15.9453 0.523438H34.5561L63.985 28.2012C68.314 32.2602 74.086 34.4302 80.147 34.4302C86.208 34.4302 91.98 32.2602 96.309 28.2012L125.738 0.523438H144.349L105.536 37.0392C98.61 43.5572 89.523 46.8942 80.139 46.8942L80.147 46.9012Z" fill="white"></path><path d="M47.6846 51.2504L7.14009 85.7364C4.11349 88.4864 0.650391 87.1864 0.650391 83.1284V19.3654C0.650391 15.3064 4.11349 14.0064 7.14009 16.7564L47.6846 51.2424V51.2504Z" fill="white"></path><path d="M192.648 93.6241C192.648 92.2041 192.152 91.1121 191.16 90.3461C190.169 89.5811 188.378 88.8081 185.795 88.0201C183.206 87.2401 181.156 86.3701 179.624 85.4111C176.701 83.5681 175.236 81.1601 175.236 78.1941C175.236 75.5931 176.287 73.4601 178.395 71.7731C180.505 70.0931 183.242 69.2461 186.609 69.2461C188.844 69.2461 190.835 69.6621 192.581 70.4871C194.328 71.3121 195.704 72.4941 196.703 74.0171C197.702 75.5411 198.205 77.2351 198.205 79.0941H192.648C192.648 77.4141 192.122 76.0911 191.072 75.1401C190.021 74.1881 188.519 73.7121 186.565 73.7121C184.745 73.7121 183.331 74.1061 182.325 74.8871C181.319 75.6671 180.815 76.7601 180.815 78.1651C180.815 79.3461 181.355 80.3271 182.443 81.1231C183.531 81.9101 185.322 82.6831 187.823 83.4271C190.324 84.1701 192.33 85.0171 193.839 85.9761C195.349 86.9271 196.459 88.0201 197.169 89.2541C197.879 90.4871 198.227 91.9291 198.227 93.5791C198.227 96.2621 197.206 98.4031 195.149 99.9861C193.099 101.569 190.317 102.365 186.809 102.365C184.486 102.365 182.355 101.933 180.408 101.071C178.462 100.209 176.945 99.0121 175.865 97.4961C174.784 95.9801 174.244 94.2041 174.244 92.1821H179.824C179.824 94.0101 180.423 95.4301 181.629 96.4331C182.836 97.4371 184.56 97.9421 186.809 97.9421C188.748 97.9421 190.206 97.5481 191.183 96.7601C192.16 95.9731 192.648 94.9251 192.648 93.6311V93.6241Z" fill="white"></path><path d="M208.549 101.923H202.992V69.6875H208.549V101.923Z" fill="white"></path><path d="M214.951 101.923V69.6875H224.43C227.264 69.6875 229.78 70.3195 231.978 71.5905C234.176 72.8615 235.878 74.6605 237.084 76.9945C238.29 79.3275 238.889 81.9965 238.889 85.0065V86.6195C238.889 89.6735 238.283 92.3565 237.069 94.6755C235.855 96.9945 234.131 98.7785 231.889 100.035C229.647 101.291 227.079 101.914 224.186 101.914H214.951V101.923ZM220.53 74.2065V97.4485H224.164C227.086 97.4485 229.329 96.5265 230.897 94.6905C232.459 92.8545 233.258 90.2165 233.288 86.7745V84.9835C233.288 81.4835 232.533 78.8145 231.016 76.9715C229.499 75.1285 227.309 74.2065 224.423 74.2065H220.523H220.53Z" fill="white"></path><path d="M262.747 87.5335H249.567V97.4485H264.974V101.923H243.988V69.6875H264.819V74.2065H249.567V83.1035H262.747V87.5335Z" fill="white"></path><path d="M293.545 91.4288C293.22 94.8708 291.963 97.5538 289.756 99.4788C287.552 101.404 284.622 102.37 280.967 102.37C278.404 102.37 276.157 101.76 274.21 100.542C272.263 99.3228 270.761 97.5908 269.703 95.3538C268.645 93.1088 268.097 90.5078 268.053 87.5418V84.5318C268.053 81.4918 268.586 78.8168 269.659 76.4978C270.732 74.1788 272.271 72.3948 274.276 71.1388C276.283 69.8828 278.599 69.2578 281.233 69.2578C284.776 69.2578 287.626 70.2248 289.786 72.1498C291.946 74.0748 293.206 76.8018 293.554 80.3328H287.996C287.73 78.0138 287.056 76.3418 285.975 75.3158C284.896 74.2898 283.311 73.7768 281.225 73.7768C278.799 73.7768 276.94 74.6688 275.639 76.4458C274.336 78.2218 273.67 80.8378 273.64 84.2788V87.1408C273.64 90.6268 274.262 93.2868 275.505 95.1158C276.748 96.9438 278.569 97.8658 280.959 97.8658C283.149 97.8658 284.792 97.3678 285.896 96.3788C286.996 95.3908 287.692 93.7478 287.987 91.4438H293.545V91.4288Z" fill="white"></path><path d="M323.559 101.923H318.004V87.6225H303.654V101.923H298.074V69.6875H303.654V83.1035H318.004V69.6875H323.559V101.923Z" fill="white"></path><path d="M348.052 94.4155H335.622L333.015 101.923H327.221L339.342 69.6875H344.345L356.488 101.923H350.672L348.052 94.4155ZM337.19 89.8965H346.491L341.837 76.5255L337.19 89.8965Z" fill="white"></path><path d="M365.568 101.923H360.012V69.6875H365.568V101.923Z" fill="white"></path><path d="M397.427 101.923H391.847L377.541 79.0525V101.923H371.961V69.6875H377.541L391.891 92.6465V69.6875H397.427V101.923Z" fill="white"></path></g></svg>
