<svg width="120" height="120" viewBox="0 0 120 120" fill="none" xmlns="http://www.w3.org/2000/svg">
<circle cx="60" cy="60" r="60" fill="black"/>
<mask id="mask0_1230_3295" style="mask-type:luminance" maskUnits="userSpaceOnUse" x="15" y="28" width="90" height="64">
<path d="M105 28H15V91.3103H105V28Z" fill="white"/>
</mask>
<g mask="url(#mask0_1230_3295)">
<path d="M64.7478 62.5036C70.5674 62.5036 76.2119 64.5705 80.5108 68.6211L104.602 91.2856H93.05L74.7837 74.1062C72.0967 71.5874 68.5141 70.2399 64.7521 70.2399C60.9907 70.2399 57.4081 71.5874 54.7211 74.1062L36.4546 91.2856H24.903L48.9934 68.6211C53.2929 64.5749 58.9332 62.5036 64.7571 62.5036H64.7478ZM64.7478 57.1104C58.9282 57.1104 53.2836 55.0442 48.9847 50.9935L24.8984 28.3242H36.45L54.7162 45.5035C57.4032 48.0229 60.9858 49.3698 64.7478 49.3698C68.5098 49.3698 72.0924 48.0229 74.7794 45.5035L93.0456 28.3242H104.597L80.5065 50.9892C76.2076 55.0348 70.5674 57.1061 64.7428 57.1061L64.7478 57.1104Z" fill="white"/>
<path d="M44.598 59.8096L19.4324 81.2147C17.5538 82.9216 15.4043 82.1147 15.4043 79.596V40.0189C15.4043 37.4996 17.5538 36.6927 19.4324 38.3996L44.598 59.8047V59.8096Z" fill="white"/>
</g>
</svg>
